Coordinates
version=1
nRows=20
nColumns=34
inDegrees=yes

Units are S.I. units (second, meters, Newtons, ...)
If the header above contains a line with 'inDegrees', this indicates whether rotational values are in degrees (yes) or radians (no).

endheader
time	pelvis_tilt	pelvis_list	pelvis_rotation	pelvis_tx	pelvis_ty	pelvis_tz	hip_flexion_r	hip_adduction_r	hip_rotation_r	knee_angle_r	ankle_angle_r	subtalar_angle_r	mtp_angle_r	hip_flexion_l	hip_adduction_l	hip_rotation_l	knee_angle_l	ankle_angle_l	subtalar_angle_l	mtp_angle_l	lumbar_extension	lumbar_bending	lumbar_rotation	arm_flex_r	arm_add_r	arm_rot_r	elbow_flex_r	pro_sup_r	arm_flex_l	arm_add_l	arm_rot_l	elbow_flex_l	pro_sup_l
      5.90000000	      1.38448403	      1.28052727	     -0.41556359	      0.13403760	      0.96211035	     -0.10836012	      0.66395947	      3.37493497	      0.25824088	      0.00000000	      2.78731152	     -1.31281864	      0.00000000	     16.54286372	     -1.86367883	     -9.56703104	     58.13672396	      5.21765444	     -5.80575696	      0.00000000	     -3.44380758	      0.71837174	     -2.37740528	     -1.91333116	     -5.77442106	      8.93655002	     26.65634817	     84.50858559	     -4.08331644	     -7.92046972	     13.67432848	     23.27061676	     76.77554272
      5.91666670	      1.20303563	      1.67772584	     -0.74599572	      0.14673708	      0.96333228	     -0.10742370	      0.09250938	      2.96648659	      0.07492889	      0.00000000	      2.87387935	     -0.56134892	      0.00000000	     18.10829988	     -0.93332963	     -9.41677472	     55.56904112	      5.61795982	     -5.18605734	      0.00000000	     -3.20110207	      0.21005770	     -1.72872382	     -2.05618213	     -5.78964323	      8.89917053	     26.60374309	     84.46715105	     -4.01775926	     -7.98043378	     13.64292704	     23.27290868	     76.75329569
      5.93333330	      1.03192857	      1.72919138	     -1.11424779	      0.15945987	      0.96338538	     -0.10683917	     -0.48096989	      2.95432820	     -0.19839156	      0.00000000	      2.95534238	      0.61299251	      0.00000000	     19.27187278	     -0.32880136	     -9.17929911	     52.22970153	      6.27969253	     -4.22486020	      0.00000000	     -2.84795954	      0.18013040	     -0.87145763	     -2.32231684	     -5.97421975	      8.73610822	     26.50243341	     84.34935839	     -3.83424923	     -7.79407202	     13.63988893	     23.10420700	     76.70947373
      5.95000000	      0.92287579	      1.64160714	     -1.41329743	      0.17227464	      0.96241095	     -0.10644536	     -1.14280065	      3.11163557	     -0.32398730	      0.00000000	      2.47231412	      0.84834148	      0.00000000	     19.86010225	      0.21889952	     -8.81257494	     47.91923470	      6.69991514	     -3.84829689	      0.00000000	     -2.49710588	      0.34681506	     -0.55422909	     -2.50817843	     -6.09955236	      8.68855392	     26.48317263	     84.31160797	     -3.99675228	     -7.65427893	     13.65302532	     23.00301499	     76.69294645
      5.96666670	      0.77112546	      1.48117064	     -1.76605392	      0.18420184	      0.96093925	     -0.10577881	     -1.79454764	      3.36766105	     -0.40092116	      0.00000000	      2.16857628	      1.03005276	      0.00000000	     20.04061227	      0.65083081	     -8.55095735	     42.81633454	      6.56189346	     -3.26612555	      0.00000000	     -2.01676121	      0.56340316	     -0.09017964	     -2.77040796	     -6.23262522	      8.66327817	     26.46873850	     84.27207120	     -4.11496126	     -7.49729335	     13.64206288	     22.91111440	     76.66350461
      5.98333330	      0.61962460	      1.27611944	     -2.17275524	      0.19398493	      0.96057534	     -0.10508684	     -2.40017969	      3.64184921	     -0.33902680	      0.00000000	      2.06562532	      1.16847242	      0.00000000	     19.98426704	      1.04525707	     -8.27768181	     37.34055653	      6.19532030	     -2.70652435	      0.00000000	     -1.63285312	      0.85114116	      0.39531739	     -3.01155085	     -6.38547261	      8.65738531	     26.53223608	     84.23033409	     -4.20162520	     -7.32915533	     13.62854500	     22.86327187	     76.62857837
      6.00000000	      0.47528874	      1.01950256	     -2.67871890	      0.20163561	      0.96256595	     -0.10451696	     -2.82881693	      3.92469489	     -0.15885452	      0.00000000	      1.95298700	      1.28986869	      0.00000000	     19.82633838	      1.37310071	     -7.89278798	     31.64675670	      5.52569216	     -2.06111102	      0.00000000	     -1.50814103	      1.22084928	      0.88040747	     -3.16108993	     -6.55712033	      8.68711531	     26.68477000	     84.19357200	     -4.23714937	     -7.15603312	     13.62113380	     22.91894813	     76.59688020
      6.01666670	      0.37652321	      0.64584163	     -3.26240853	      0.20870320	      0.96434474	     -0.10406587	     -3.10618520	      4.29162390	      0.09779482	      0.00000000	      1.87168022	      1.37239920	      0.00000000	     19.62291797	      1.50714988	     -7.32009644	     26.05197849	      4.68205710	     -1.32646150	      0.00000000	     -1.69203586	      1.72607921	      1.39127552	     -3.15047000	     -6.76099128	      8.76119921	     26.90742827	     84.16486451	     -4.15669138	     -6.97057909	     13.62215143	     23.10910973	     76.57457773
      6.03333330	      0.34604735	      0.15277181	     -3.82384264	      0.21670479	      0.96305085	     -0.10346046	     -3.32784861	      4.75223507	      0.34398842	      0.00000000	      2.02130024	      1.34236653	      0.00000000	     19.38425082	      1.40175941	     -6.52739738	     20.95863557	      3.83213126	     -0.47229504	      0.00000000	     -2.12277739	      2.33642190	      1.87540988	     -3.05527611	     -6.97849266	      8.87670509	     27.15304997	     84.14436785	     -3.98104607	     -6.78507260	     13.63584351	     23.39044332	     76.56649069
      6.05000000	      0.41698429	     -0.34257808	     -4.24172705	      0.22656197	      0.96003097	     -0.10257297	     -3.63438453	      5.20608701	      0.59183602	      0.00000000	      2.66548341	      1.16584808	      0.00000000	     19.02625074	      1.19178522	     -5.58173210	     16.65079915	      3.22413378	      0.34756309	      0.00000000	     -2.72033578	      2.88067960	      2.26349298	     -2.93590343	     -7.15863780	      9.02390695	     27.41146272	     84.12467480	     -3.70501191	     -6.65047207	     13.66488974	     23.70047899	     76.57372016
      6.06666670	      0.60521999	     -0.74238737	     -4.46833962	      0.23832705	      0.95750357	     -0.10179316	     -4.20352823	      5.53881675	      0.79133268	      0.00000000	      3.72765458	      0.86407373	      0.00000000	     18.50834856	      1.05651256	     -4.54557030	     13.18820657	      2.91695726	      0.99860690	      0.00000000	     -3.33809280	      3.23264515	      2.46237250	     -2.82908406	     -7.25468038	      9.16646697	     27.61536096	     84.09929485	     -3.41546975	     -6.57724721	     13.71716120	     23.92512899	     76.59494698
      6.08333330	      0.88608795	     -0.98587996	     -4.55557926	      0.25034877	      0.95604595	     -0.10110841	     -5.04636722	      5.70837378	      0.96374313	      0.00000000	      5.11221576	      0.47683146	      0.00000000	     17.79797813	      1.08196592	     -3.55967916	     10.38298239	      2.73492839	      1.35887340	      0.00000000	     -3.91969465	      3.33475182	      2.50127324	     -2.73672370	     -7.23496709	      9.28992639	     27.70358077	     84.06677429	     -3.14298096	     -6.57526208	     13.78715799	     24.02322714	     76.62351799
      6.10000000	      1.20392852	     -1.05294335	     -4.54183486	      0.26135239	      0.95398267	     -0.10026990	     -6.04416779	      5.71417397	      1.20036800	      0.00000000	      6.86350410	      0.12225564	      0.00000000	     16.95788063	      1.29117015	     -2.70866877	      8.18921652	      2.57383867	      1.29824357	      0.00000000	     -4.39543577	      3.17909123	      2.41386255	     -2.63506727	     -7.10630425	      9.39154511	     27.66915977	     84.02326311	     -2.88569347	     -6.65199113	     13.88376321	     24.02839048	     76.65855229
      6.11666670	      1.64354543	     -0.94210897	     -4.45043189	      0.27183717	      0.95135247	     -0.09961197	     -7.25352902	      5.53151619	      1.39467374	      0.00000000	      8.95978594	      0.20509935	      0.00000000	     15.85817830	      1.72464850	     -1.92886012	      6.53946953	      2.21426361	      0.50546424	      0.00000000	     -4.93630393	      2.84000325	      2.19073544	     -2.50888850	     -6.92939493	      9.49849259	     27.39879474	     83.92235952	     -2.63842896	     -6.77736165	     14.13431483	     23.99499511	     76.73153056
      6.13333330	      1.50452632	     -0.64932839	     -4.23774335	      0.28300882	      0.94791190	     -0.09937835	     -7.83642514	      5.22657246	      1.67432130	      0.00000000	     11.06708805	     -0.19325075	      0.00000000	     15.46729468	      2.30299594	     -1.64273405	      5.81297101	      2.37825267	      0.21216837	      0.00000000	     -4.53456102	      2.27411436	      1.96104101	     -2.74913801	     -6.64421036	      9.55705756	     27.31347199	     83.90286089	     -2.55078596	     -6.99852214	     14.17061299	     23.97362702	     76.74427047
      6.15000000	      1.80767000	     -0.30349865	     -4.09321873	      0.29399989	      0.94607207	     -0.09979938	     -8.87373440	      4.78778599	      1.55702479	      0.00000000	     13.18152210	      0.62318550	      0.00000000	     14.44100304	      3.03141023	     -1.07284145	      5.32655142	      1.47222428	     -1.63438870	      0.00000000	     -4.74152871	      1.61231669	      1.55011938	     -2.47978371	     -6.28933164	      9.58336745	     26.71020287	     83.73010017	     -2.36179410	     -7.29526162	     14.65557092	     23.98628363	     76.85373284
      6.16666670	      1.80732024	     -0.02510957	     -4.04078119	      0.30502754	      0.94454060	     -0.10052883	     -9.58373763	      4.42694592	      1.62178971	      0.00000000	     14.64935046	      0.83921772	      0.00000000	     13.74069534	      3.65794977	     -0.88638576	      5.24895239	      0.95797298	     -2.56842044	      0.00000000	     -4.42032954	      1.11143823	      1.23734729	     -2.51794871	     -6.02927929	      9.64048756	     26.41986976	     83.59693739	     -2.37750960	     -7.53357655	     15.00986468	     23.97265787	     76.91454136
      6.18333330	      1.90282673	      0.21361914	     -4.01603592	      0.31568517	      0.94346571	     -0.10108642	    -10.42927720	      4.10740243	      1.54262152	      0.00000000	     15.59654205	      1.05665060	      0.00000000	     12.88590202	      4.23388182	     -0.68409753	      5.16481497	      0.30944012	     -3.58335363	      0.00000000	     -4.27156005	      0.62409509	      0.95200826	     -2.49899071	     -5.79093782	      9.70920602	     26.08479875	     83.44064662	     -2.26374831	     -7.77990756	     15.41659229	     24.00217400	     76.96805152
      6.20000000	      1.82118143	      0.40011914	     -4.04823445	      0.32636905	      0.94224110	     -0.10128652	    -11.11952474	      3.86010288	      1.66913382	      0.00000000	     16.16304861	      1.02129524	      0.00000000	     12.25003844	      4.65768198	     -0.67149566	      5.10686169	     -0.00628743	     -3.87304304	      0.00000000	     -3.87551351	      0.21143789	      0.71785869	     -2.63791128	     -5.58162455	      9.75269176	     25.99561248	     83.39819874	     -2.20147184	     -7.99517641	     15.52742703	     23.98852582	     76.98144728
      6.21666670	      2.21572886	      0.39229050	     -4.08176132	      0.33608536	      0.94220364	     -0.10176063	    -12.32748398	      3.77829260	      1.83403064	      0.00000000	     16.59480616	      1.24775437	      0.00000000	     11.06411219	      4.86464685	     -0.30520467	      4.86569105	     -0.92166350	     -4.81410195	      0.00000000	     -4.29301815	     -0.01413631	      0.32455336	     -2.41024630	     -5.42423594	      9.80653899	     25.57567536	     83.25337289	     -1.97986754	     -8.23896758	     16.03085979	     24.04413157	     77.04904099
